<svg xmlns="http://www.w3.org/2000/svg" style="display:none">
  <symbol id="folder" viewBox="0 0 24 24">
      <path d="M5 4h4l3 3h7a2 2 0 0 1 2 2v8a2 2 0 0 1 -2 2h-14a2 2 0 0 1 -2 -2v-11a2 2 0 0 1 2 -2" />
  </symbol>
  <symbol id="file" viewBox="0 0 24 24">
      <path d="M14 3v4a1 1 0 0 0 1 1h4" />
      <path d="M17 21h-10a2 2 0 0 1 -2 -2v-14a2 2 0 0 1 2 -2h7l5 5v11a2 2 0 0 1 -2 2" />
  </symbol>
  <symbol id="image" viewBox="0 0 24 24">
      <path d="M15 8h.01" />
      <path d="M3 6a3 3 0 0 1 3 -3h12a3 3 0 0 1 3 3v12a3 3 0 0 1 -3 3h-12a3 3 0 0 1 -3 -3v-12" />
      <path d="M3 16l5 -5c.928 -.893 2.072 -.893 3 0l5 5" />
      <path d="M14 14l1 -1c.928 -.893 2.072 -.893 3 0l3 3" />
  </symbol>
  <symbol id="video" viewBox="0 0 24 24">
      <path d="M15 10l4.553 -2.276a1 1 0 0 1 1.447 .894v6.764a1 1 0 0 1 -1.447 .894l-4.553 -2.276v-4" />
      <path d="M3 8a2 2 0 0 1 2 -2h8a2 2 0 0 1 2 2v8a2 2 0 0 1 -2 2h-8a2 2 0 0 1 -2 -2l0 -8" />
  </symbol>
  <symbol id="audio" viewBox="0 0 24 24">
      <path d="M3 17a3 3 0 1 0 6 0a3 3 0 0 0 -6 0" />
      <path d="M13 17a3 3 0 1 0 6 0a3 3 0 0 0 -6 0" />
      <path d="M9 17v-13h10v13" />
      <path d="M9 8h10" />
  </symbol>
  <symbol id="pdf" viewBox="0 0 24 24">
      <path d="M14 3v4a1 1 0 0 0 1 1h4" />
      <path d="M5 12v-7a2 2 0 0 1 2 -2h7l5 5v4" />
      <path d="M5 18h1.5a1.5 1.5 0 0 0 0 -3h-1.5v6" />
      <path d="M17 18h2" />
      <path d="M20 15h-3v6" />
      <path d="M11 15v6h1a2 2 0 0 0 2 -2v-2a2 2 0 0 0 -2 -2h-1" />
  </symbol>
  <symbol id="archive" viewBox="0 0 24 24">
      <path d="M3 6a2 2 0 0 1 2 -2h14a2 2 0 0 1 2 2a2 2 0 0 1 -2 2h-14a2 2 0 0 1 -2 -2" />
      <path d="M5 8v10a2 2 0 0 0 2 2h10a2 2 0 0 0 2 -2v-10" />
      <path d="M10 12l4 0" />
  </symbol>
  <symbol id="text" viewBox="0 0 24 24">
      <path d="M14 3v4a1 1 0 0 0 1 1h4" />
      <path d="M17 21h-10a2 2 0 0 1 -2 -2v-14a2 2 0 0 1 2 -2h7l5 5v11a2 2 0 0 1 -2 2" />
      <path d="M9 17h6" />
      <path d="M9 13h6" />
  </symbol>
  <symbol id="up" viewBox="0 0 24 24">
      <path d="M12 5l0 14" />
      <path d="M18 11l-6 -6" />
      <path d="M6 11l6 -6" />
  </symbol>
  <symbol id="upload" viewBox="0 0 24 24">
      <path d="M4 17v2a2 2 0 0 0 2 2h12a2 2 0 0 0 2 -2v-2" />
      <path d="M7 9l5 -5l5 5" />
      <path d="M12 4l0 12" />
  </symbol>
  <symbol id="newfolder" viewBox="0 0 24 24">
      <path d="M12 19h-7a2 2 0 0 1 -2 -2v-11a2 2 0 0 1 2 -2h4l3 3h7a2 2 0 0 1 2 2v3.5" />
      <path d="M16 19h6" />
      <path d="M19 16v6" />
  </symbol>
  <symbol id="search" viewBox="0 0 24 24">
      <path d="M3 10a7 7 0 1 0 14 0a7 7 0 1 0 -14 0" />
      <path d="M21 21l-6 -6" />
  </symbol>
  <symbol id="open" viewBox="0 0 24 24">
      <path d="M12 6h-6a2 2 0 0 0 -2 2v10a2 2 0 0 0 2 2h10a2 2 0 0 0 2 -2v-6" />
      <path d="M11 13l9 -9" />
      <path d="M15 4h5v5" />
  </symbol>
  <symbol id="download" viewBox="0 0 24 24">
      <path d="M4 17v2a2 2 0 0 0 2 2h12a2 2 0 0 0 2 -2v-2" />
      <path d="M7 11l5 5l5 -5" />
      <path d="M12 4l0 12" />
  </symbol>
  <symbol id="layout-grid" viewBox="0 0 24 24">
      <path d="M4 4h6v6h-6z" />
      <path d="M14 4h6v6h-6z" />
      <path d="M4 14h6v6h-6z" />
      <path d="M14 14h6v6h-6z" />
  </symbol>
  <symbol id="wide" viewBox="0 0 24 24">
      <path d="M4 6a2 2 0 0 1 2 -2h12a2 2 0 0 1 2 2v12a2 2 0 0 1 -2 2h-12a2 2 0 0 1 -2 -2l0 -12" />
      <path d="M15 4l0 16" />
  </symbol>
  <symbol id="code" viewBox="0 0 24 24">
      <path d="M7 8l-4 4l4 4" />
      <path d="M17 8l4 4l-4 4" />
      <path d="M14 4l-4 16" />
  </symbol>
  <symbol id="check" viewBox="0 0 24 24">
      <path d="M5 12l5 5l10 -10" />
  </symbol>
  <symbol id="edit" viewBox="0 0 24 24">
      <path d="M7 7h-1a2 2 0 0 0 -2 2v9a2 2 0 0 0 2 2h9a2 2 0 0 0 2 -2v-1" />
      <path d="M20.385 6.585a2.1 2.1 0 0 0 -2.97 -2.97l-8.415 8.385v3h3l8.385 -8.415" />
      <path d="M16 5l3 3" />
  </symbol>
  <symbol id="trash" viewBox="0 0 24 24">
      <path d="M4 7l16 0" />
      <path d="M10 11l0 6" />
      <path d="M14 11l0 6" />
      <path d="M5 7l1 12a2 2 0 0 0 2 2h8a2 2 0 0 0 2 -2l1 -12" />
      <path d="M9 7v-3a1 1 0 0 1 1 -1h4a1 1 0 0 1 1 1v3" />
  </symbol>
  <symbol id="link" viewBox="0 0 24 24">
      <path d="M9 15l6 -6" />
      <path d="M11 6l.463 -.536a5 5 0 0 1 7.071 7.072l-.534 .464" />
      <path d="M13 18l-.397 .534a5.068 5.068 0 0 1 -7.127 0a4.972 4.972 0 0 1 0 -7.071l.524 -.463" />
  </symbol>
  <symbol id="eye" viewBox="0 0 24 24">
      <path d="M10 12a2 2 0 1 0 4 0a2 2 0 0 0 -4 0" />
      <path d="M21 12c-2.4 4 -5.4 6 -9 6c-3.6 0 -6.6 -2 -9 -6c2.4 -4 5.4 -6 9 -6c3.6 0 6.6 2 9 6" />
  </symbol>
  <symbol id="chevr" viewBox="0 0 24 24">
      <path d="M9 6l6 6l-6 6" />
  </symbol>
  <symbol id="chevd" viewBox="0 0 24 24">
      <path d="M6 9l6 6l6 -6" />
  </symbol>
  <symbol id="chevl" viewBox="0 0 24 24">
      <path d="M15 6l-6 6l6 6" />
  </symbol>
  <symbol id="close" viewBox="0 0 24 24">
      <path d="M18 6l-12 12" />
      <path d="M6 6l12 12" />
  </symbol>
  <symbol id="server" viewBox="0 0 24 24">
      <path d="M3 7a3 3 0 0 1 3 -3h12a3 3 0 0 1 3 3v2a3 3 0 0 1 -3 3h-12a3 3 0 0 1 -3 -3" />
      <path d="M3 15a3 3 0 0 1 3 -3h12a3 3 0 0 1 3 3v2a3 3 0 0 1 -3 3h-12a3 3 0 0 1 -3 -3l0 -2" />
      <path d="M7 8l0 .01" />
      <path d="M7 16l0 .01" />
  </symbol>
  <symbol id="folders" viewBox="0 0 24 24">
      <path d="M9 3h3l2 2h5a2 2 0 0 1 2 2v7a2 2 0 0 1 -2 2h-10a2 2 0 0 1 -2 -2v-9a2 2 0 0 1 2 -2" />
      <path d="M17 16v2a2 2 0 0 1 -2 2h-10a2 2 0 0 1 -2 -2v-9a2 2 0 0 1 2 -2h2" />
  </symbol>
  <symbol id="folderup" viewBox="0 0 24 24">
      <path d="M12 19h-7a2 2 0 0 1 -2 -2v-11a2 2 0 0 1 2 -2h4l3 3h7a2 2 0 0 1 2 2v3.5" />
      <path d="M19 22v-6" />
      <path d="M22 19l-3 -3l-3 3" />
  </symbol>
  <symbol id="copy" viewBox="0 0 24 24">
      <path d="M7 9.667a2.667 2.667 0 0 1 2.667 -2.667h8.666a2.667 2.667 0 0 1 2.667 2.667v8.666a2.667 2.667 0 0 1 -2.667 2.667h-8.666a2.667 2.667 0 0 1 -2.667 -2.667l0 -8.666" />
      <path d="M4.012 16.737a2.005 2.005 0 0 1 -1.012 -1.737v-10c0 -1.1 .9 -2 2 -2h10c.75 0 1.158 .385 1.5 1" />
  </symbol>
  <symbol id="cut" viewBox="0 0 24 24">
      <path d="M3 7a3 3 0 1 0 6 0a3 3 0 1 0 -6 0" />
      <path d="M3 17a3 3 0 1 0 6 0a3 3 0 1 0 -6 0" />
      <path d="M8.6 8.6l10.4 10.4" />
      <path d="M8.6 15.4l10.4 -10.4" />
  </symbol>
  <symbol id="paste" viewBox="0 0 24 24">
      <path d="M9 5h-2a2 2 0 0 0 -2 2v12a2 2 0 0 0 2 2h10a2 2 0 0 0 2 -2v-12a2 2 0 0 0 -2 -2h-2" />
      <path d="M9 5a2 2 0 0 1 2 -2h2a2 2 0 0 1 2 2a2 2 0 0 1 -2 2h-2a2 2 0 0 1 -2 -2" />
  </symbol>
  <symbol id="play" viewBox="0 0 24 24">
      <path d="M7 4v16l13 -8l-13 -8" />
  </symbol>
  <symbol id="pause" viewBox="0 0 24 24">
      <path d="M6 6a1 1 0 0 1 1 -1h2a1 1 0 0 1 1 1v12a1 1 0 0 1 -1 1h-2a1 1 0 0 1 -1 -1l0 -12" />
      <path d="M14 6a1 1 0 0 1 1 -1h2a1 1 0 0 1 1 1v12a1 1 0 0 1 -1 1h-2a1 1 0 0 1 -1 -1l0 -12" />
  </symbol>
  <symbol id="retry" viewBox="0 0 24 24">
      <path d="M20 11a8.1 8.1 0 0 0 -15.5 -2m-.5 -4v4h4" />
      <path d="M4 13a8.1 8.1 0 0 0 15.5 2m.5 4v-4h-4" />
  </symbol>
</svg>
