<svg xmlns="http://www.w3.org/2000/svg" style="display:none">
<symbol id="folder" viewBox="0 0 24 24"><path fill="none" stroke="currentColor" stroke-linecap="round" stroke-linejoin="round" stroke-width="2" d="M5 4h4l3 3h7a2 2 0 0 1 2 2v8a2 2 0 0 1-2 2H5a2 2 0 0 1-2-2V6a2 2 0 0 1 2-2"/></symbol>
<symbol id="file" viewBox="0 0 24 24"><g fill="none" stroke="currentColor" stroke-linecap="round" stroke-linejoin="round" stroke-width="2"><path d="M14 3v4a1 1 0 0 0 1 1h4"/><path d="M17 21H7a2 2 0 0 1-2-2V5a2 2 0 0 1 2-2h7l5 5v11a2 2 0 0 1-2 2"/></g></symbol>
<symbol id="image" viewBox="0 0 24 24"><g fill="none" stroke="currentColor" stroke-linecap="round" stroke-linejoin="round" stroke-width="2"><path d="M15 8h.01M3 6a3 3 0 0 1 3-3h12a3 3 0 0 1 3 3v12a3 3 0 0 1-3 3H6a3 3 0 0 1-3-3z"/><path d="m3 16l5-5c.928-.893 2.072-.893 3 0l5 5"/><path d="m14 14l1-1c.928-.893 2.072-.893 3 0l3 3"/></g></symbol>
<symbol id="video" viewBox="0 0 24 24"><path fill="none" stroke="currentColor" stroke-linecap="round" stroke-linejoin="round" stroke-width="2" d="m15 10l4.553-2.276A1 1 0 0 1 21 8.618v6.764a1 1 0 0 1-1.447.894L15 14zM3 8a2 2 0 0 1 2-2h8a2 2 0 0 1 2 2v8a2 2 0 0 1-2 2H5a2 2 0 0 1-2-2z"/></symbol>
<symbol id="audio" viewBox="0 0 24 24"><path fill="none" stroke="currentColor" stroke-linecap="round" stroke-linejoin="round" stroke-width="2" d="M15 8a5 5 0 0 1 0 8m2.7-11a9 9 0 0 1 0 14M6 15H4a1 1 0 0 1-1-1v-4a1 1 0 0 1 1-1h2l3.5-4.5A.8.8 0 0 1 11 5v14a.8.8 0 0 1-1.5.5z"/></symbol>
<symbol id="pdf" viewBox="0 0 24 24"><g fill="none" stroke="currentColor" stroke-linecap="round" stroke-linejoin="round" stroke-width="2"><path d="M14 3v4a1 1 0 0 0 1 1h4"/><path d="M5 12V5a2 2 0 0 1 2-2h7l5 5v4M5 18h1.5a1.5 1.5 0 0 0 0-3H5v6m12-3h2m1-3h-3v6m-6-6v6h1a2 2 0 0 0 2-2v-2a2 2 0 0 0-2-2z"/></g></symbol>
<symbol id="archive" viewBox="0 0 24 24"><g fill="none" stroke="currentColor" stroke-linecap="round" stroke-linejoin="round" stroke-width="2"><path d="M6 20.735A2 2 0 0 1 5 19V5a2 2 0 0 1 2-2h7l5 5v11a2 2 0 0 1-2 2h-1"/><path d="M11 17a2 2 0 0 1 2 2v2a1 1 0 0 1-1 1h-2a1 1 0 0 1-1-1v-2a2 2 0 0 1 2-2m0-12h-1m3 2h-1m-1 2h-1m3 2h-1m-1 2h-1m3 2h-1"/></g></symbol>
<symbol id="text" viewBox="0 0 24 24"><g fill="none" stroke="currentColor" stroke-linecap="round" stroke-linejoin="round" stroke-width="2"><path d="M14 3v4a1 1 0 0 0 1 1h4"/><path d="M17 21H7a2 2 0 0 1-2-2V5a2 2 0 0 1 2-2h7l5 5v11a2 2 0 0 1-2 2M9 9h1m-1 4h6m-6 4h6"/></g></symbol>
<symbol id="up" viewBox="0 0 24 24"><path fill="none" stroke="currentColor" stroke-linecap="round" stroke-linejoin="round" stroke-width="2" d="M12 5v14m6-8l-6-6m-6 6l6-6"/></symbol>
<symbol id="upload" viewBox="0 0 24 24"><path fill="none" stroke="currentColor" stroke-linecap="round" stroke-linejoin="round" stroke-width="2" d="M4 17v2a2 2 0 0 0 2 2h12a2 2 0 0 0 2-2v-2M7 9l5-5l5 5m-5-5v12"/></symbol>
<symbol id="newfolder" viewBox="0 0 24 24"><path fill="none" stroke="currentColor" stroke-linecap="round" stroke-linejoin="round" stroke-width="2" d="M12 19H5a2 2 0 0 1-2-2V6a2 2 0 0 1 2-2h4l3 3h7a2 2 0 0 1 2 2v3.5M16 19h6m-3-3v6"/></symbol>
<symbol id="search" viewBox="0 0 24 24"><path fill="none" stroke="currentColor" stroke-linecap="round" stroke-linejoin="round" stroke-width="2" d="M3 10a7 7 0 1 0 14 0a7 7 0 1 0-14 0m18 11l-6-6"/></symbol>
<symbol id="open" viewBox="0 0 24 24"><path fill="none" stroke="currentColor" stroke-linecap="round" stroke-linejoin="round" stroke-width="2" d="M12 6H6a2 2 0 0 0-2 2v10a2 2 0 0 0 2 2h10a2 2 0 0 0 2-2v-6m-7 1l9-9m-5 0h5v5"/></symbol>
<symbol id="download" viewBox="0 0 24 24"><path fill="none" stroke="currentColor" stroke-linecap="round" stroke-linejoin="round" stroke-width="2" d="M4 17v2a2 2 0 0 0 2 2h12a2 2 0 0 0 2-2v-2M7 11l5 5l5-5m-5-7v12"/></symbol>
<symbol id="wide" viewBox="0 0 24 24"><g fill="none" stroke="currentColor" stroke-linecap="round" stroke-linejoin="round" stroke-width="2"><path d="M4 6a2 2 0 0 1 2-2h12a2 2 0 0 1 2 2v12a2 2 0 0 1-2 2H6a2 2 0 0 1-2-2z"/><path d="M15 4v16"/><path d="M7 8h4"/><path d="M7 12h4"/><path d="M7 16h4"/></g></symbol>
<symbol id="code" viewBox="0 0 24 24"><g fill="none" stroke="currentColor" stroke-linecap="round" stroke-linejoin="round" stroke-width="2"><path d="M7 8l-4 4l4 4"/><path d="M17 8l4 4l-4 4"/><path d="M14 4l-4 16"/></g></symbol>
<symbol id="check" viewBox="0 0 24 24"><path fill="none" stroke="currentColor" stroke-linecap="round" stroke-linejoin="round" stroke-width="2" d="m5 12l5 5L20 7"/></symbol>
<symbol id="edit" viewBox="0 0 24 24"><path fill="none" stroke="currentColor" stroke-linecap="round" stroke-linejoin="round" stroke-width="2" d="M14 6l7 7M4 20v-4L15.5 4.5a2.12 2.12 0 0 1 3 3L8 19z"/></symbol>
<symbol id="trash" viewBox="0 0 24 24"><path fill="none" stroke="currentColor" stroke-linecap="round" stroke-linejoin="round" stroke-width="2" d="M4 7h16m-10 4v6m4-6v6M6 7l1 12a2 2 0 0 0 2 2h6a2 2 0 0 0 2-2l1-12M9 7V4a1 1 0 0 1 1-1h4a1 1 0 0 1 1 1v3"/></symbol>
<symbol id="link" viewBox="0 0 24 24"><path fill="none" stroke="currentColor" stroke-linecap="round" stroke-linejoin="round" stroke-width="2" d="M9 15l6-6m-8 8a3 3 0 0 1 0-4l3-3a3 3 0 0 1 4 0m3 3a3 3 0 0 1 0 4l-3 3a3 3 0 0 1-4 0"/></symbol>
<symbol id="eye" viewBox="0 0 24 24"><g fill="none" stroke="currentColor" stroke-linecap="round" stroke-linejoin="round" stroke-width="2"><path d="M10 12a2 2 0 1 0 4 0a2 2 0 0 0-4 0"/><path d="M21 12c-1.667 4-5 6-9 6s-7.333-2-9-6c1.667-4 5-6 9-6s7.333 2 9 6"/></g></symbol>
<symbol id="chevr" viewBox="0 0 24 24"><path fill="none" stroke="currentColor" stroke-linecap="round" stroke-linejoin="round" stroke-width="2" d="M9 6l6 6l-6 6"/></symbol>
<symbol id="chevd" viewBox="0 0 24 24"><path fill="none" stroke="currentColor" stroke-linecap="round" stroke-linejoin="round" stroke-width="2" d="M6 9l6 6l6-6"/></symbol>
<symbol id="close" viewBox="0 0 24 24"><path fill="none" stroke="currentColor" stroke-linecap="round" stroke-linejoin="round" stroke-width="2" d="M18 6L6 18M6 6l12 12"/></symbol>
<symbol id="server" viewBox="0 0 24 24"><path fill="none" stroke="currentColor" stroke-linecap="round" stroke-linejoin="round" stroke-width="2" d="M3 7a3 3 0 0 1 3-3h12a3 3 0 0 1 3 3v2a3 3 0 0 1-3 3H6a3 3 0 0 1-3-3m0 6a3 3 0 0 1 3-3h12a3 3 0 0 1 3 3v2a3 3 0 0 1-3 3H6a3 3 0 0 1-3-3zm4-7v.01M7 16v.01"/></symbol>
<symbol id="folders" viewBox="0 0 24 24"><g fill="none" stroke="currentColor" stroke-linecap="round" stroke-linejoin="round" stroke-width="2"><path d="M9 3h3l2 2h5a2 2 0 0 1 2 2v7a2 2 0 0 1-2 2H9a2 2 0 0 1-2-2V5a2 2 0 0 1 2-2"/><path d="M17 16v2a2 2 0 0 1-2 2H5a2 2 0 0 1-2-2V9a2 2 0 0 1 2-2h2"/></g></symbol>
</svg>
